#N canvas -1165 321 1033 539 12;
#X obj 62 134 line~;
#X obj 135 170 *~;
#X obj 62 87 bng 15 250 50 0 empty empty empty 17 7 0 10 -262144 -1
-1;
#X obj 135 110 phasor~ 220;
#X msg 62 110 1 \, 0 80;
#X obj 135 134 expr~ ($v1>0.6);
#X obj 135 194 hip~ 500;
#X obj 135 218 *~ 0.1;
#X obj 198 194 r canVolume;
#X obj 62 38 r can_\$1;
#X obj 135 38 r canFreq_\$1;
#X floatatom 135 62 5 0 0 0 - - -;
#X obj 179 62 inlet~;
#X obj 135 242 outlet~;
#X connect 0 0 1 1;
#X connect 1 0 6 0;
#X connect 2 0 4 0;
#X connect 3 0 5 0;
#X connect 4 0 0 0;
#X connect 5 0 1 0;
#X connect 6 0 7 0;
#X connect 7 0 13 0;
#X connect 8 0 7 1;
#X connect 9 0 2 0;
#X connect 10 0 11 0;
#X connect 11 0 3 0;
#X connect 12 0 1 0;
