#N canvas -8 -8 1920 1037 12;
#X obj 61 400 dac~;
#N canvas -1928 -8 1920 1037 rain 1;
#X obj 24 103 noise~;
#X floatatom 129 112 5 0 0 0 - - -;
#X floatatom 169 112 5 0 0 0 - - -;
#X obj 96 138 bp~ 20 0.1;
#X obj 24 337 +~;
#X obj 24 454 outlet~;
#X obj 129 42 loadbang;
#X obj 24 423 clip~ -1 1;
#X obj 24 251 *~;
#X obj 24 278 lop~ 1200;
#X obj 24 370 +~;
#X obj 24 397 lop~ 1500;
#X obj 96 191 lop~ 250;
#X obj 218 103 noise~;
#X floatatom 323 112 5 0 0 0 - - -;
#X floatatom 363 113 5 0 0 0 - - -;
#X obj 290 138 bp~ 20 0.1;
#X obj 218 337 +~;
#X obj 218 251 *~;
#X obj 96 167 lop~ 400;
#X obj 24 167 lop~ 4000;
#X obj 24 192 hip~ 1000;
#X obj 24 223 bp~ 2500 2;
#X obj 24 302 *~ 5;
#X obj 96 318 *~ 0.2;
#X obj 290 191 lop~ 100;
#X obj 218 192 hip~ 1000;
#X obj 218 167 lop~ 2000;
#X obj 218 223 bp~ 1500 2;
#X obj 290 167 lop~ 1000;
#X obj 218 278 lop~ 600;
#X obj 290 318 *~ 0.1;
#X msg 129 73 6500;
#X msg 323 73 400;
#X obj 218 302 *~ 1.2;
#X msg 169 73 20;
#X msg 363 73 10;
#X connect 0 0 3 0;
#X connect 0 0 20 0;
#X connect 1 0 3 1;
#X connect 2 0 3 2;
#X connect 3 0 19 0;
#X connect 4 0 10 0;
#X connect 6 0 32 0;
#X connect 6 0 35 0;
#X connect 6 0 33 0;
#X connect 6 0 36 0;
#X connect 7 0 5 0;
#X connect 8 0 9 0;
#X connect 9 0 23 0;
#X connect 10 0 11 0;
#X connect 11 0 7 0;
#X connect 12 0 24 0;
#X connect 13 0 16 0;
#X connect 13 0 27 0;
#X connect 14 0 16 1;
#X connect 15 0 16 2;
#X connect 16 0 29 0;
#X connect 17 0 10 0;
#X connect 18 0 30 0;
#X connect 19 0 8 1;
#X connect 19 0 12 0;
#X connect 20 0 21 0;
#X connect 21 0 22 0;
#X connect 22 0 8 0;
#X connect 23 0 4 0;
#X connect 24 0 4 1;
#X connect 25 0 31 0;
#X connect 26 0 28 0;
#X connect 27 0 26 0;
#X connect 28 0 18 0;
#X connect 29 0 18 1;
#X connect 29 0 25 0;
#X connect 30 0 34 0;
#X connect 31 0 17 1;
#X connect 32 0 1 0;
#X connect 33 0 14 0;
#X connect 34 0 17 0;
#X connect 35 0 2 0;
#X connect 36 0 15 0;
#X restore 61 126 pd rain;
#X obj 157 48 noise~;
#X obj 157 70 bp~ 3000 10;
#X obj 127 315 s rainVolume;
#X obj 556 326 s can_0;
#X floatatom 616 300 5 0 0 0 - - -;
#X obj 616 326 s canFreq_0;
#X obj 556 301 bng 15 250 50 0 empty empty empty 17 7 0 10 -262144
-1 -1;
#X obj 650 357 s canFreq_1;
#X obj 567 367 s can_1;
#X floatatom 723 310 5 0 0 0 - - -;
#X obj 516 321 bng 15 250 50 0 empty empty empty 17 7 0 10 -262144
-1 -1;
#X obj 511 365 bng 15 250 50 0 empty empty empty 17 7 0 10 -262144
-1 -1;
#X obj 157 198 +~;
#X obj 61 239 +~;
#X obj 61 335 *~;
#X obj 218 315 s canVolume;
#X floatatom 79 311 5 0 1 0 - - -;
#X obj 127 259 loadbang;
#X msg 79 289 1;
#N canvas -1639 179 1030 725 can0 0;
#X obj 62 134 line~;
#X obj 135 170 *~;
#X obj 62 87 bng 15 250 50 0 empty empty empty 17 7 0 10 -262144 -1
-1;
#X obj 135 194 hip~ 500;
#X obj 135 218 *~ 0.1;
#X obj 198 194 r canVolume;
#X floatatom 135 62 5 0 0 0 - - -;
#X obj 179 62 inlet~;
#X obj 135 242 outlet~;
#X obj 62 38 r can_0;
#X obj 135 38 r canFreq_0;
#X obj 135 110 osc~ 220;
#X msg 62 110 1 \, 0 65;
#X connect 0 0 1 1;
#X connect 1 0 3 0;
#X connect 2 0 12 0;
#X connect 3 0 4 0;
#X connect 4 0 8 0;
#X connect 5 0 4 1;
#X connect 6 0 11 0;
#X connect 7 0 1 0;
#X connect 9 0 2 0;
#X connect 10 0 6 0;
#X connect 11 0 1 0;
#X connect 12 0 0 0;
#X restore 157 130 pd can0;
#N canvas 651 173 751 638 can1 1;
#X obj 62 134 line~;
#X obj 135 170 *~;
#X obj 62 87 bng 15 250 50 0 empty empty empty 17 7 0 10 -262144 -1
-1;
#X obj 135 194 hip~ 500;
#X obj 135 218 *~ 0.1;
#X obj 198 194 r canVolume;
#X floatatom 135 62 5 0 0 0 - - -;
#X obj 179 62 inlet~;
#X obj 135 242 outlet~;
#X obj 135 38 r canFreq_1;
#X obj 62 38 r can_1;
#X msg 62 110 1 \, 0 65;
#X obj 135 110 osc~ 220;
#X connect 0 0 1 1;
#X connect 1 0 3 0;
#X connect 2 0 11 0;
#X connect 3 0 4 0;
#X connect 4 0 8 0;
#X connect 5 0 4 1;
#X connect 6 0 12 0;
#X connect 7 0 1 0;
#X connect 9 0 6 0;
#X connect 10 0 2 0;
#X connect 11 0 0 0;
#X connect 12 0 1 0;
#X restore 212 130 pd can1;
#N canvas 0 50 751 638 can2 0;
#X obj 62 134 line~;
#X obj 135 170 *~;
#X obj 62 87 bng 15 250 50 0 empty empty empty 17 7 0 10 -262144 -1
-1;
#X obj 135 110 osc~ 220;
#X msg 62 110 1 \, 0 65;
#X obj 135 194 hip~ 500;
#X obj 135 218 *~ 0.1;
#X obj 198 194 r canVolume;
#X floatatom 135 62 5 0 0 0 - - -;
#X obj 179 62 inlet~;
#X obj 135 242 outlet~;
#X obj 135 38 r canFreq_2;
#X obj 62 38 r can_2;
#X connect 0 0 1 1;
#X connect 1 0 5 0;
#X connect 2 0 4 0;
#X connect 3 0 1 0;
#X connect 4 0 0 0;
#X connect 5 0 6 0;
#X connect 6 0 10 0;
#X connect 7 0 6 1;
#X connect 8 0 3 0;
#X connect 9 0 1 0;
#X connect 11 0 8 0;
#X connect 12 0 2 0;
#X restore 267 130 pd can2;
#N canvas 0 50 751 638 can3 0;
#X obj 62 134 line~;
#X obj 135 170 *~;
#X obj 62 87 bng 15 250 50 0 empty empty empty 17 7 0 10 -262144 -1
-1;
#X obj 135 110 osc~ 220;
#X msg 62 110 1 \, 0 65;
#X obj 135 194 hip~ 500;
#X obj 135 218 *~ 0.1;
#X obj 198 194 r canVolume;
#X floatatom 135 62 5 0 0 0 - - -;
#X obj 179 62 inlet~;
#X obj 135 242 outlet~;
#X obj 62 38 r can_3;
#X obj 135 38 r canFreq_3;
#X connect 0 0 1 1;
#X connect 1 0 5 0;
#X connect 2 0 4 0;
#X connect 3 0 1 0;
#X connect 4 0 0 0;
#X connect 5 0 6 0;
#X connect 6 0 10 0;
#X connect 7 0 6 1;
#X connect 8 0 3 0;
#X connect 9 0 1 0;
#X connect 11 0 2 0;
#X connect 12 0 8 0;
#X restore 322 130 pd can3;
#N canvas 0 50 751 638 can4 0;
#X obj 62 134 line~;
#X obj 135 170 *~;
#X obj 62 87 bng 15 250 50 0 empty empty empty 17 7 0 10 -262144 -1
-1;
#X obj 135 110 osc~ 220;
#X msg 62 110 1 \, 0 65;
#X obj 135 194 hip~ 500;
#X obj 135 218 *~ 0.1;
#X obj 198 194 r canVolume;
#X floatatom 135 62 5 0 0 0 - - -;
#X obj 179 62 inlet~;
#X obj 135 242 outlet~;
#X obj 62 38 r can_4;
#X obj 135 38 r canFreq_4;
#X connect 0 0 1 1;
#X connect 1 0 5 0;
#X connect 2 0 4 0;
#X connect 3 0 1 0;
#X connect 4 0 0 0;
#X connect 5 0 6 0;
#X connect 6 0 10 0;
#X connect 7 0 6 1;
#X connect 8 0 3 0;
#X connect 9 0 1 0;
#X connect 11 0 2 0;
#X connect 12 0 8 0;
#X restore 377 130 pd can4;
#N canvas 0 50 751 638 can5 0;
#X obj 62 134 line~;
#X obj 135 170 *~;
#X obj 62 87 bng 15 250 50 0 empty empty empty 17 7 0 10 -262144 -1
-1;
#X obj 135 110 osc~ 220;
#X msg 62 110 1 \, 0 65;
#X obj 135 194 hip~ 500;
#X obj 135 218 *~ 0.1;
#X obj 198 194 r canVolume;
#X floatatom 135 62 5 0 0 0 - - -;
#X obj 179 62 inlet~;
#X obj 135 242 outlet~;
#X obj 62 38 r can_5;
#X obj 135 38 r canFreq_5;
#X connect 0 0 1 1;
#X connect 1 0 5 0;
#X connect 2 0 4 0;
#X connect 3 0 1 0;
#X connect 4 0 0 0;
#X connect 5 0 6 0;
#X connect 6 0 10 0;
#X connect 7 0 6 1;
#X connect 8 0 3 0;
#X connect 9 0 1 0;
#X connect 11 0 2 0;
#X connect 12 0 8 0;
#X restore 432 130 pd can5;
#N canvas 0 50 751 638 can6 0;
#X obj 62 134 line~;
#X obj 135 170 *~;
#X obj 62 87 bng 15 250 50 0 empty empty empty 17 7 0 10 -262144 -1
-1;
#X obj 135 110 osc~ 220;
#X msg 62 110 1 \, 0 65;
#X obj 135 194 hip~ 500;
#X obj 135 218 *~ 0.1;
#X obj 198 194 r canVolume;
#X floatatom 135 62 5 0 0 0 - - -;
#X obj 179 62 inlet~;
#X obj 135 242 outlet~;
#X obj 62 38 r can_6;
#X obj 135 38 r canFreq_6;
#X connect 0 0 1 1;
#X connect 1 0 5 0;
#X connect 2 0 4 0;
#X connect 3 0 1 0;
#X connect 4 0 0 0;
#X connect 5 0 6 0;
#X connect 6 0 10 0;
#X connect 7 0 6 1;
#X connect 8 0 3 0;
#X connect 9 0 1 0;
#X connect 11 0 2 0;
#X connect 12 0 8 0;
#X restore 487 130 pd can6;
#N canvas 0 50 751 638 can7 0;
#X obj 62 134 line~;
#X obj 135 170 *~;
#X obj 62 87 bng 15 250 50 0 empty empty empty 17 7 0 10 -262144 -1
-1;
#X obj 135 110 osc~ 220;
#X msg 62 110 1 \, 0 65;
#X obj 135 194 hip~ 500;
#X obj 135 218 *~ 0.1;
#X obj 198 194 r canVolume;
#X floatatom 135 62 5 0 0 0 - - -;
#X obj 179 62 inlet~;
#X obj 135 242 outlet~;
#X obj 62 38 r can_7;
#X obj 135 38 r canFreq_7;
#X connect 0 0 1 1;
#X connect 1 0 5 0;
#X connect 2 0 4 0;
#X connect 3 0 1 0;
#X connect 4 0 0 0;
#X connect 5 0 6 0;
#X connect 6 0 10 0;
#X connect 7 0 6 1;
#X connect 8 0 3 0;
#X connect 9 0 1 0;
#X connect 11 0 2 0;
#X connect 12 0 8 0;
#X restore 542 130 pd can7;
#N canvas 0 50 751 638 can8 0;
#X obj 62 134 line~;
#X obj 135 170 *~;
#X obj 62 87 bng 15 250 50 0 empty empty empty 17 7 0 10 -262144 -1
-1;
#X obj 135 110 osc~ 220;
#X msg 62 110 1 \, 0 65;
#X obj 135 194 hip~ 500;
#X obj 135 218 *~ 0.1;
#X obj 198 194 r canVolume;
#X floatatom 135 62 5 0 0 0 - - -;
#X obj 179 62 inlet~;
#X obj 135 242 outlet~;
#X obj 62 38 r can_8;
#X obj 135 38 r canFreq_8;
#X connect 0 0 1 1;
#X connect 1 0 5 0;
#X connect 2 0 4 0;
#X connect 3 0 1 0;
#X connect 4 0 0 0;
#X connect 5 0 6 0;
#X connect 6 0 10 0;
#X connect 7 0 6 1;
#X connect 8 0 3 0;
#X connect 9 0 1 0;
#X connect 11 0 2 0;
#X connect 12 0 8 0;
#X restore 597 130 pd can8;
#N canvas -1102 223 751 638 can9 0;
#X obj 62 134 line~;
#X obj 135 170 *~;
#X obj 62 87 bng 15 250 50 0 empty empty empty 17 7 0 10 -262144 -1
-1;
#X obj 135 110 osc~ 220;
#X msg 62 110 1 \, 0 65;
#X obj 135 194 hip~ 500;
#X obj 135 218 *~ 0.1;
#X obj 198 194 r canVolume;
#X floatatom 135 62 5 0 0 0 - - -;
#X obj 179 62 inlet~;
#X obj 135 242 outlet~;
#X obj 62 38 r can_9;
#X obj 135 38 r canFreq_9;
#X connect 0 0 1 1;
#X connect 1 0 5 0;
#X connect 2 0 4 0;
#X connect 3 0 1 0;
#X connect 4 0 0 0;
#X connect 5 0 6 0;
#X connect 6 0 10 0;
#X connect 7 0 6 1;
#X connect 8 0 3 0;
#X connect 9 0 1 0;
#X connect 11 0 2 0;
#X connect 12 0 8 0;
#X restore 652 130 pd can9;
#X floatatom 160 288 5 0 1 0 - - -;
#X msg 127 288 0;
#X obj 61 365 clip~ -1 1;
#X obj 61 174 *~;
#X obj 79 151 r rainVolume;
#X msg 218 289 0.15;
#X obj 289 198 r rainVolumeMultiplier;
#X obj 453 198 r canVolumeMultiplier;
#X msg 326 288 1;
#X floatatom 326 312 5 0 0 0 - - -;
#X floatatom 369 312 5 0 0 0 - - -;
#X obj 157 222 *~;
#X obj 61 198 *~;
#X connect 1 0 34 0;
#X connect 2 0 3 0;
#X connect 3 0 21 0;
#X connect 3 0 22 0;
#X connect 3 0 23 0;
#X connect 3 0 24 0;
#X connect 3 0 25 0;
#X connect 3 0 30 0;
#X connect 3 0 29 0;
#X connect 3 0 28 0;
#X connect 3 0 27 0;
#X connect 3 0 26 0;
#X connect 6 0 7 0;
#X connect 8 0 5 0;
#X connect 8 0 10 0;
#X connect 11 0 9 0;
#X connect 12 0 5 0;
#X connect 13 0 10 0;
#X connect 14 0 42 0;
#X connect 15 0 16 0;
#X connect 16 0 33 0;
#X connect 18 0 16 1;
#X connect 19 0 32 0;
#X connect 19 0 36 0;
#X connect 19 0 20 0;
#X connect 19 0 39 0;
#X connect 20 0 18 0;
#X connect 21 0 14 0;
#X connect 22 0 14 0;
#X connect 23 0 14 0;
#X connect 24 0 14 0;
#X connect 25 0 14 0;
#X connect 26 0 14 0;
#X connect 27 0 14 0;
#X connect 28 0 14 0;
#X connect 29 0 14 0;
#X connect 30 0 14 0;
#X connect 31 0 4 0;
#X connect 32 0 4 0;
#X connect 33 0 0 0;
#X connect 33 0 0 1;
#X connect 34 0 43 0;
#X connect 35 0 34 1;
#X connect 36 0 17 0;
#X connect 37 0 40 0;
#X connect 38 0 41 0;
#X connect 39 0 40 0;
#X connect 39 0 41 0;
#X connect 40 0 43 1;
#X connect 41 0 42 1;
#X connect 42 0 15 1;
#X connect 43 0 15 0;
