#N canvas -8 -8 1920 1037 12;
#X obj 38 447 dac~;
#N canvas -8 -8 1920 1037 rain 0;
#X obj 24 103 noise~;
#X floatatom 129 112 5 0 0 0 - - -;
#X floatatom 169 112 5 0 0 0 - - -;
#X obj 96 138 bp~ 20 0.1;
#X obj 24 337 +~;
#X obj 24 454 outlet~;
#X obj 129 42 loadbang;
#X obj 24 423 clip~ -1 1;
#X obj 24 251 *~;
#X obj 24 278 lop~ 1200;
#X obj 24 370 +~;
#X obj 24 397 lop~ 1500;
#X obj 96 191 lop~ 250;
#X obj 218 103 noise~;
#X floatatom 323 112 5 0 0 0 - - -;
#X floatatom 363 113 5 0 0 0 - - -;
#X obj 290 138 bp~ 20 0.1;
#X obj 218 337 +~;
#X obj 218 251 *~;
#X obj 96 167 lop~ 400;
#X obj 24 167 lop~ 4000;
#X obj 24 192 hip~ 1000;
#X obj 24 223 bp~ 2500 2;
#X obj 96 318 *~ 0.2;
#X obj 290 191 lop~ 100;
#X obj 218 192 hip~ 1000;
#X obj 218 167 lop~ 2000;
#X obj 218 223 bp~ 1500 2;
#X obj 290 167 lop~ 1000;
#X obj 218 278 lop~ 600;
#X obj 290 318 *~ 0.1;
#X msg 129 73 6500;
#X msg 323 73 400;
#X msg 169 73 20;
#X msg 363 73 10;
#X obj 24 302 *~ 6;
#X obj 218 302 *~ 2;
#X connect 0 0 3 0;
#X connect 0 0 20 0;
#X connect 1 0 3 1;
#X connect 2 0 3 2;
#X connect 3 0 19 0;
#X connect 4 0 10 0;
#X connect 6 0 31 0;
#X connect 6 0 33 0;
#X connect 6 0 32 0;
#X connect 6 0 34 0;
#X connect 7 0 5 0;
#X connect 8 0 9 0;
#X connect 9 0 35 0;
#X connect 10 0 11 0;
#X connect 11 0 7 0;
#X connect 12 0 23 0;
#X connect 13 0 16 0;
#X connect 13 0 26 0;
#X connect 14 0 16 1;
#X connect 15 0 16 2;
#X connect 16 0 28 0;
#X connect 17 0 10 0;
#X connect 18 0 29 0;
#X connect 19 0 8 1;
#X connect 19 0 12 0;
#X connect 20 0 21 0;
#X connect 21 0 22 0;
#X connect 22 0 8 0;
#X connect 23 0 4 1;
#X connect 24 0 30 0;
#X connect 25 0 27 0;
#X connect 26 0 25 0;
#X connect 27 0 18 0;
#X connect 28 0 18 1;
#X connect 28 0 24 0;
#X connect 29 0 36 0;
#X connect 30 0 17 1;
#X connect 31 0 1 0;
#X connect 32 0 14 0;
#X connect 33 0 2 0;
#X connect 34 0 15 0;
#X connect 35 0 4 0;
#X connect 36 0 17 0;
#X restore 38 219 pd rain;
#X obj 159 141 noise~;
#X obj 159 163 bp~ 3000 10;
#X obj 374 334 s rainVolume;
#X obj 159 291 +~;
#X obj 38 334 +~;
#X obj 374 277 loadbang;
#N canvas -1198 149 1030 725 can0 0;
#X obj 62 134 line~;
#X obj 135 170 *~;
#X obj 62 87 bng 15 250 50 0 empty empty empty 17 7 0 10 -262144 -1
-1;
#X obj 135 194 hip~ 500;
#X floatatom 135 62 5 0 0 0 - - -;
#X obj 179 62 inlet~;
#X obj 135 242 outlet~;
#X obj 62 38 r can_0;
#X obj 135 38 r canFreq_0;
#X obj 135 110 osc~ 220;
#X msg 62 110 1 \, 0 65;
#X connect 0 0 1 1;
#X connect 1 0 3 0;
#X connect 2 0 10 0;
#X connect 3 0 6 0;
#X connect 4 0 9 0;
#X connect 5 0 1 0;
#X connect 7 0 2 0;
#X connect 8 0 4 0;
#X connect 9 0 1 0;
#X connect 10 0 0 0;
#X restore 159 223 pd can0;
#N canvas 651 173 751 638 can1 0;
#X obj 62 134 line~;
#X obj 135 170 *~;
#X obj 62 87 bng 15 250 50 0 empty empty empty 17 7 0 10 -262144 -1
-1;
#X obj 135 194 hip~ 500;
#X floatatom 135 62 5 0 0 0 - - -;
#X obj 179 62 inlet~;
#X obj 135 242 outlet~;
#X obj 135 38 r canFreq_1;
#X obj 62 38 r can_1;
#X msg 62 110 1 \, 0 65;
#X obj 135 110 osc~ 220;
#X connect 0 0 1 1;
#X connect 1 0 3 0;
#X connect 2 0 9 0;
#X connect 3 0 6 0;
#X connect 4 0 10 0;
#X connect 5 0 1 0;
#X connect 7 0 4 0;
#X connect 8 0 2 0;
#X connect 9 0 0 0;
#X connect 10 0 1 0;
#X restore 214 223 pd can1;
#N canvas 0 50 751 638 can2 0;
#X obj 62 134 line~;
#X obj 135 170 *~;
#X obj 62 87 bng 15 250 50 0 empty empty empty 17 7 0 10 -262144 -1
-1;
#X obj 135 110 osc~ 220;
#X msg 62 110 1 \, 0 65;
#X obj 135 194 hip~ 500;
#X floatatom 135 62 5 0 0 0 - - -;
#X obj 179 62 inlet~;
#X obj 135 242 outlet~;
#X obj 135 38 r canFreq_2;
#X obj 62 38 r can_2;
#X connect 0 0 1 1;
#X connect 1 0 5 0;
#X connect 2 0 4 0;
#X connect 3 0 1 0;
#X connect 4 0 0 0;
#X connect 5 0 8 0;
#X connect 6 0 3 0;
#X connect 7 0 1 0;
#X connect 9 0 6 0;
#X connect 10 0 2 0;
#X restore 269 223 pd can2;
#N canvas 0 50 751 638 can3 0;
#X obj 62 134 line~;
#X obj 135 170 *~;
#X obj 62 87 bng 15 250 50 0 empty empty empty 17 7 0 10 -262144 -1
-1;
#X obj 135 110 osc~ 220;
#X msg 62 110 1 \, 0 65;
#X obj 135 194 hip~ 500;
#X floatatom 135 62 5 0 0 0 - - -;
#X obj 179 62 inlet~;
#X obj 135 242 outlet~;
#X obj 62 38 r can_3;
#X obj 135 38 r canFreq_3;
#X connect 0 0 1 1;
#X connect 1 0 5 0;
#X connect 2 0 4 0;
#X connect 3 0 1 0;
#X connect 4 0 0 0;
#X connect 5 0 8 0;
#X connect 6 0 3 0;
#X connect 7 0 1 0;
#X connect 9 0 2 0;
#X connect 10 0 6 0;
#X restore 324 223 pd can3;
#N canvas 0 50 751 638 can4 0;
#X obj 62 134 line~;
#X obj 135 170 *~;
#X obj 62 87 bng 15 250 50 0 empty empty empty 17 7 0 10 -262144 -1
-1;
#X obj 135 110 osc~ 220;
#X msg 62 110 1 \, 0 65;
#X obj 135 194 hip~ 500;
#X floatatom 135 62 5 0 0 0 - - -;
#X obj 179 62 inlet~;
#X obj 135 242 outlet~;
#X obj 62 38 r can_4;
#X obj 135 38 r canFreq_4;
#X connect 0 0 1 1;
#X connect 1 0 5 0;
#X connect 2 0 4 0;
#X connect 3 0 1 0;
#X connect 4 0 0 0;
#X connect 5 0 8 0;
#X connect 6 0 3 0;
#X connect 7 0 1 0;
#X connect 9 0 2 0;
#X connect 10 0 6 0;
#X restore 379 223 pd can4;
#N canvas 0 50 751 638 can5 0;
#X obj 62 134 line~;
#X obj 135 170 *~;
#X obj 62 87 bng 15 250 50 0 empty empty empty 17 7 0 10 -262144 -1
-1;
#X obj 135 110 osc~ 220;
#X msg 62 110 1 \, 0 65;
#X obj 135 194 hip~ 500;
#X floatatom 135 62 5 0 0 0 - - -;
#X obj 179 62 inlet~;
#X obj 135 242 outlet~;
#X obj 62 38 r can_5;
#X obj 135 38 r canFreq_5;
#X connect 0 0 1 1;
#X connect 1 0 5 0;
#X connect 2 0 4 0;
#X connect 3 0 1 0;
#X connect 4 0 0 0;
#X connect 5 0 8 0;
#X connect 6 0 3 0;
#X connect 7 0 1 0;
#X connect 9 0 2 0;
#X connect 10 0 6 0;
#X restore 434 223 pd can5;
#N canvas 0 50 751 638 can6 0;
#X obj 62 134 line~;
#X obj 135 170 *~;
#X obj 62 87 bng 15 250 50 0 empty empty empty 17 7 0 10 -262144 -1
-1;
#X obj 135 110 osc~ 220;
#X msg 62 110 1 \, 0 65;
#X obj 135 194 hip~ 500;
#X floatatom 135 62 5 0 0 0 - - -;
#X obj 179 62 inlet~;
#X obj 135 242 outlet~;
#X obj 62 38 r can_6;
#X obj 135 38 r canFreq_6;
#X connect 0 0 1 1;
#X connect 1 0 5 0;
#X connect 2 0 4 0;
#X connect 3 0 1 0;
#X connect 4 0 0 0;
#X connect 5 0 8 0;
#X connect 6 0 3 0;
#X connect 7 0 1 0;
#X connect 9 0 2 0;
#X connect 10 0 6 0;
#X restore 489 223 pd can6;
#N canvas 0 50 751 638 can7 0;
#X obj 62 134 line~;
#X obj 135 170 *~;
#X obj 62 87 bng 15 250 50 0 empty empty empty 17 7 0 10 -262144 -1
-1;
#X obj 135 110 osc~ 220;
#X msg 62 110 1 \, 0 65;
#X obj 135 194 hip~ 500;
#X floatatom 135 62 5 0 0 0 - - -;
#X obj 179 62 inlet~;
#X obj 135 242 outlet~;
#X obj 62 38 r can_7;
#X obj 135 38 r canFreq_7;
#X connect 0 0 1 1;
#X connect 1 0 5 0;
#X connect 2 0 4 0;
#X connect 3 0 1 0;
#X connect 4 0 0 0;
#X connect 5 0 8 0;
#X connect 6 0 3 0;
#X connect 7 0 1 0;
#X connect 9 0 2 0;
#X connect 10 0 6 0;
#X restore 544 223 pd can7;
#N canvas 0 50 751 638 can8 0;
#X obj 62 134 line~;
#X obj 135 170 *~;
#X obj 62 87 bng 15 250 50 0 empty empty empty 17 7 0 10 -262144 -1
-1;
#X obj 135 110 osc~ 220;
#X msg 62 110 1 \, 0 65;
#X obj 135 194 hip~ 500;
#X floatatom 135 62 5 0 0 0 - - -;
#X obj 179 62 inlet~;
#X obj 135 242 outlet~;
#X obj 62 38 r can_8;
#X obj 135 38 r canFreq_8;
#X connect 0 0 1 1;
#X connect 1 0 5 0;
#X connect 2 0 4 0;
#X connect 3 0 1 0;
#X connect 4 0 0 0;
#X connect 5 0 8 0;
#X connect 6 0 3 0;
#X connect 7 0 1 0;
#X connect 9 0 2 0;
#X connect 10 0 6 0;
#X restore 599 223 pd can8;
#N canvas 299 210 751 638 can9 0;
#X obj 62 134 line~;
#X obj 135 170 *~;
#X obj 62 87 bng 15 250 50 0 empty empty empty 17 7 0 10 -262144 -1
-1;
#X obj 135 110 osc~ 220;
#X msg 62 110 1 \, 0 65;
#X obj 135 194 hip~ 500;
#X floatatom 135 62 5 0 0 0 - - -;
#X obj 179 62 inlet~;
#X obj 135 242 outlet~;
#X obj 62 38 r can_9;
#X obj 135 38 r canFreq_9;
#X connect 0 0 1 1;
#X connect 1 0 5 0;
#X connect 2 0 4 0;
#X connect 3 0 1 0;
#X connect 4 0 0 0;
#X connect 5 0 8 0;
#X connect 6 0 3 0;
#X connect 7 0 1 0;
#X connect 9 0 2 0;
#X connect 10 0 6 0;
#X restore 654 223 pd can9;
#X floatatom 407 307 5 0 1 0 - - -;
#X msg 374 307 0;
#X obj 38 412 clip~ -1 1;
#X obj 38 267 *~;
#X obj 56 244 r rainVolume;
#N canvas -1928 -8 1920 1037 thunder 0;
#X obj 505 83 r thunder;
#X obj 65 455 outlet~;
#X obj 65 70 noise~;
#X floatatom 170 79 5 0 0 0 - - -;
#X floatatom 210 80 5 0 0 0 - - -;
#X obj 137 105 bp~ 20 0.1;
#X obj 65 218 *~;
#X obj 137 134 lop~ 1000;
#X obj 376 230 t b;
#X msg 376 263 0 0;
#X obj 376 303 line~;
#X obj 65 352 *~;
#X obj 408 230 delay 1;
#X msg 170 40 1000;
#X msg 210 40 40;
#X obj 65 190 bp~ 1500 2;
#X obj 65 396 +~;
#X obj 544 230 t b;
#X msg 544 263 0 0;
#X obj 544 303 line~;
#X obj 575 230 delay 1;
#X obj 65 245 lop~ 200;
#X obj 65 269 lop~ 200;
#X obj 65 424 clip~ -1 1;
#X msg 632 263 0 5000;
#X obj 261 3 loadbang;
#X obj 505 106 t b;
#X obj 584 149 random 1000;
#X msg 465 263 0 5000;
#X obj 465 230 delay;
#X obj 632 230 delay;
#X obj 584 198 delay;
#X obj 667 149 random 6000;
#X obj 497 148 random 6000;
#X obj 497 172 + 1000;
#X obj 667 173 + 1000;
#X obj 584 174 + 1000;
#X obj 574 87 bng 15 250 50 0 empty empty empty 17 7 0 10 -262144 -1
-1;
#X obj 65 293 *~ 24;
#X obj 65 159 lop~ 1000;
#X obj 65 134 lop~ 1000;
#X msg 408 263 1 300;
#X msg 575 263 1 300;
#X obj 264 71 noise~;
#X floatatom 369 80 5 0 0 0 - - -;
#X floatatom 409 81 5 0 0 0 - - -;
#X obj 336 106 bp~ 20 0.1;
#X obj 264 219 *~;
#X obj 336 135 lop~ 1000;
#X obj 264 352 *~;
#X msg 369 41 1000;
#X msg 409 41 40;
#X obj 264 191 bp~ 1500 2;
#X obj 264 246 lop~ 200;
#X obj 264 270 lop~ 200;
#X obj 264 160 lop~ 1000;
#X obj 264 135 lop~ 1000;
#X obj 264 294 *~ 40;
#X connect 0 0 26 0;
#X connect 2 0 5 0;
#X connect 2 0 40 0;
#X connect 3 0 5 1;
#X connect 4 0 5 2;
#X connect 5 0 7 0;
#X connect 6 0 21 0;
#X connect 7 0 6 1;
#X connect 8 0 9 0;
#X connect 8 0 12 0;
#X connect 9 0 10 0;
#X connect 10 0 11 1;
#X connect 11 0 16 0;
#X connect 12 0 41 0;
#X connect 12 0 29 0;
#X connect 13 0 3 0;
#X connect 14 0 4 0;
#X connect 15 0 6 0;
#X connect 16 0 23 0;
#X connect 17 0 18 0;
#X connect 17 0 20 0;
#X connect 18 0 19 0;
#X connect 19 0 49 1;
#X connect 20 0 42 0;
#X connect 20 0 30 0;
#X connect 21 0 22 0;
#X connect 22 0 38 0;
#X connect 23 0 1 0;
#X connect 24 0 19 0;
#X connect 25 0 13 0;
#X connect 25 0 14 0;
#X connect 25 0 50 0;
#X connect 25 0 51 0;
#X connect 26 0 8 0;
#X connect 26 0 33 0;
#X connect 26 0 27 0;
#X connect 26 0 32 0;
#X connect 26 0 31 0;
#X connect 27 0 36 0;
#X connect 28 0 10 0;
#X connect 29 0 28 0;
#X connect 30 0 24 0;
#X connect 31 0 17 0;
#X connect 32 0 35 0;
#X connect 33 0 34 0;
#X connect 34 0 29 1;
#X connect 35 0 30 1;
#X connect 36 0 31 1;
#X connect 37 0 26 0;
#X connect 38 0 11 0;
#X connect 39 0 15 0;
#X connect 40 0 39 0;
#X connect 41 0 10 0;
#X connect 42 0 19 0;
#X connect 43 0 46 0;
#X connect 43 0 56 0;
#X connect 44 0 46 1;
#X connect 45 0 46 2;
#X connect 46 0 48 0;
#X connect 47 0 53 0;
#X connect 48 0 47 1;
#X connect 49 0 16 1;
#X connect 50 0 44 0;
#X connect 51 0 45 0;
#X connect 52 0 47 0;
#X connect 53 0 54 0;
#X connect 54 0 57 0;
#X connect 55 0 52 0;
#X connect 56 0 55 0;
#X connect 57 0 49 0;
#X restore 159 340 pd thunder;
#X obj 38 383 +~;
#X obj 159 315 *~;
#X obj 159 364 *~;
#X msg 274 345 1;
#X msg 274 296 0.2;
#X connect 1 0 21 0;
#X connect 2 0 3 0;
#X connect 3 0 8 0;
#X connect 3 0 9 0;
#X connect 3 0 10 0;
#X connect 3 0 11 0;
#X connect 3 0 12 0;
#X connect 3 0 17 0;
#X connect 3 0 16 0;
#X connect 3 0 15 0;
#X connect 3 0 14 0;
#X connect 3 0 13 0;
#X connect 5 0 25 0;
#X connect 6 0 24 0;
#X connect 7 0 19 0;
#X connect 7 0 28 0;
#X connect 7 0 27 0;
#X connect 8 0 5 0;
#X connect 9 0 5 0;
#X connect 10 0 5 0;
#X connect 11 0 5 0;
#X connect 12 0 5 0;
#X connect 13 0 5 0;
#X connect 14 0 5 0;
#X connect 15 0 5 0;
#X connect 16 0 5 0;
#X connect 17 0 5 0;
#X connect 18 0 4 0;
#X connect 19 0 4 0;
#X connect 20 0 0 0;
#X connect 20 0 0 1;
#X connect 21 0 6 0;
#X connect 22 0 21 1;
#X connect 23 0 26 0;
#X connect 24 0 20 0;
#X connect 25 0 6 1;
#X connect 26 0 24 1;
#X connect 27 0 26 1;
#X connect 28 0 25 1;
